<svg width="466" height="77" viewBox="0 0 466 77" fill="none" xmlns="http://www.w3.org/2000/svg">
<path d="M4.04545 62V15.4545H22.4091C25.9242 15.4545 28.9242 16.0833 31.4091 17.3409C33.9091 18.5833 35.8106 20.3485 37.1136 22.6364C38.4318 24.9091 39.0909 27.5833 39.0909 30.6591C39.0909 33.75 38.4242 36.4091 37.0909 38.6364C35.7576 40.8485 33.8258 42.5455 31.2955 43.7273C28.7803 44.9091 25.7348 45.5 22.1591 45.5H9.86364V37.5909H20.5682C22.447 37.5909 24.0076 37.3333 25.25 36.8182C26.4924 36.303 27.4167 35.5303 28.0227 34.5C28.6439 33.4697 28.9545 32.1894 28.9545 30.6591C28.9545 29.1136 28.6439 27.8106 28.0227 26.75C27.4167 25.6894 26.4848 24.8864 25.2273 24.3409C23.9848 23.7803 22.4167 23.5 20.5227 23.5H13.8864V62H4.04545ZM29.1818 40.8182L40.75 62H29.8864L18.5682 40.8182H29.1818ZM61.2102 62.6818C57.6193 62.6818 54.5284 61.9545 51.9375 60.5C49.3617 59.0303 47.3769 56.9545 45.983 54.2727C44.589 51.5758 43.892 48.3864 43.892 44.7045C43.892 41.1136 44.589 37.9621 45.983 35.25C47.3769 32.5379 49.339 30.4242 51.8693 28.9091C54.4148 27.3939 57.3996 26.6364 60.8239 26.6364C63.1269 26.6364 65.2708 27.0076 67.2557 27.75C69.2557 28.4773 70.9981 29.5758 72.483 31.0455C73.983 32.5152 75.1496 34.3636 75.983 36.5909C76.8163 38.803 77.233 41.3939 77.233 44.3636V47.0227H47.7557V41.0227H68.1193C68.1193 39.6288 67.8163 38.3939 67.2102 37.3182C66.6042 36.2424 65.7633 35.4015 64.6875 34.7955C63.6269 34.1742 62.392 33.8636 60.983 33.8636C59.5133 33.8636 58.2102 34.2045 57.0739 34.8864C55.9527 35.553 55.0739 36.4545 54.4375 37.5909C53.8011 38.7121 53.4754 39.9621 53.4602 41.3409V47.0455C53.4602 48.7727 53.7784 50.2652 54.4148 51.5227C55.0663 52.7803 55.983 53.75 57.1648 54.4318C58.3466 55.1136 59.7481 55.4545 61.3693 55.4545C62.4451 55.4545 63.4299 55.303 64.3239 55C65.2178 54.697 65.983 54.2424 66.6193 53.6364C67.2557 53.0303 67.7405 52.2879 68.0739 51.4091L77.0284 52C76.5739 54.1515 75.642 56.0303 74.233 57.6364C72.839 59.2273 71.036 60.4697 68.8239 61.3636C66.6269 62.2424 64.089 62.6818 61.2102 62.6818ZM96.4148 62.5682C93.7633 62.5682 91.3617 61.8864 89.2102 60.5227C87.0739 59.1439 85.3769 57.1212 84.1193 54.4545C82.8769 51.7727 82.2557 48.4848 82.2557 44.5909C82.2557 40.5909 82.8996 37.2652 84.1875 34.6136C85.4754 31.947 87.1875 29.9545 89.3239 28.6364C91.4754 27.303 93.8314 26.6364 96.392 26.6364C98.3466 26.6364 99.9754 26.9697 101.278 27.6364C102.597 28.2879 103.657 29.1061 104.46 30.0909C105.278 31.0606 105.9 32.0152 106.324 32.9545H106.619V15.4545H116.278V62H106.733V56.4091H106.324C105.869 57.3788 105.225 58.3409 104.392 59.2955C103.574 60.2348 102.506 61.0152 101.188 61.6364C99.8845 62.2576 98.2936 62.5682 96.4148 62.5682ZM99.483 54.8636C101.044 54.8636 102.362 54.4394 103.438 53.5909C104.528 52.7273 105.362 51.5227 105.938 49.9773C106.528 48.4318 106.824 46.6212 106.824 44.5455C106.824 42.4697 106.536 40.6667 105.96 39.1364C105.384 37.6061 104.551 36.4242 103.46 35.5909C102.369 34.7576 101.044 34.3409 99.483 34.3409C97.892 34.3409 96.5511 34.7727 95.4602 35.6364C94.3693 36.5 93.5436 37.697 92.983 39.2273C92.4223 40.7576 92.142 42.5303 92.142 44.5455C92.142 46.5758 92.4223 48.3712 92.983 49.9318C93.5587 51.4773 94.3845 52.6894 95.4602 53.5682C96.5511 54.4318 97.892 54.8636 99.483 54.8636ZM178.358 15.4545V62H168.676V15.4545H178.358ZM196.068 62.6591C193.841 62.6591 191.856 62.2727 190.114 61.5C188.371 60.7121 186.992 59.553 185.977 58.0227C184.977 56.4773 184.477 54.553 184.477 52.25C184.477 50.3106 184.833 48.6818 185.545 47.3636C186.258 46.0455 187.227 44.9848 188.455 44.1818C189.682 43.3788 191.076 42.7727 192.636 42.3636C194.212 41.9545 195.864 41.6667 197.591 41.5C199.621 41.2879 201.258 41.0909 202.5 40.9091C203.742 40.7121 204.644 40.4242 205.205 40.0455C205.765 39.6667 206.045 39.1061 206.045 38.3636V38.2273C206.045 36.7879 205.591 35.6742 204.682 34.8864C203.788 34.0985 202.515 33.7045 200.864 33.7045C199.121 33.7045 197.735 34.0909 196.705 34.8636C195.674 35.6212 194.992 36.5758 194.659 37.7273L185.705 37C186.159 34.8788 187.053 33.0455 188.386 31.5C189.72 29.9394 191.439 28.7424 193.545 27.9091C195.667 27.0606 198.121 26.6364 200.909 26.6364C202.848 26.6364 204.705 26.8636 206.477 27.3182C208.265 27.7727 209.848 28.4773 211.227 29.4318C212.621 30.3864 213.72 31.6136 214.523 33.1136C215.326 34.5985 215.727 36.3788 215.727 38.4545V62H206.545V57.1591H206.273C205.712 58.25 204.962 59.2121 204.023 60.0455C203.083 60.8636 201.955 61.5076 200.636 61.9773C199.318 62.4318 197.795 62.6591 196.068 62.6591ZM198.841 55.9773C200.265 55.9773 201.523 55.697 202.614 55.1364C203.705 54.5606 204.561 53.7879 205.182 52.8182C205.803 51.8485 206.114 50.75 206.114 49.5227V45.8182C205.811 46.0152 205.394 46.197 204.864 46.3636C204.348 46.5152 203.765 46.6591 203.114 46.7955C202.462 46.9167 201.811 47.0303 201.159 47.1364C200.508 47.2273 199.917 47.3106 199.386 47.3864C198.25 47.553 197.258 47.8182 196.409 48.1818C195.561 48.5455 194.902 49.0379 194.432 49.6591C193.962 50.2652 193.727 51.0227 193.727 51.9318C193.727 53.25 194.205 54.2576 195.159 54.9545C196.129 55.6364 197.356 55.9773 198.841 55.9773ZM238.966 75.8182C235.83 75.8182 233.14 75.3864 230.898 74.5227C228.67 73.6742 226.898 72.5152 225.58 71.0455C224.261 69.5758 223.405 67.9242 223.011 66.0909L231.966 64.8864C232.239 65.5833 232.67 66.2348 233.261 66.8409C233.852 67.447 234.633 67.9318 235.602 68.2955C236.587 68.6742 237.784 68.8636 239.193 68.8636C241.299 68.8636 243.034 68.3485 244.398 67.3182C245.777 66.303 246.466 64.5985 246.466 62.2045V55.8182H246.057C245.633 56.7879 244.996 57.7045 244.148 58.5682C243.299 59.4318 242.208 60.1364 240.875 60.6818C239.542 61.2273 237.951 61.5 236.102 61.5C233.481 61.5 231.095 60.8939 228.943 59.6818C226.807 58.4545 225.102 56.5833 223.83 54.0682C222.572 51.5379 221.943 48.3409 221.943 44.4773C221.943 40.5227 222.587 37.2197 223.875 34.5682C225.163 31.9167 226.875 29.9318 229.011 28.6136C231.163 27.2955 233.519 26.6364 236.08 26.6364C238.034 26.6364 239.67 26.9697 240.989 27.6364C242.307 28.2879 243.367 29.1061 244.17 30.0909C244.989 31.0606 245.617 32.0152 246.057 32.9545H246.42V27.0909H256.034V62.3409C256.034 65.3106 255.307 67.7955 253.852 69.7955C252.398 71.7955 250.383 73.2955 247.807 74.2955C245.246 75.3106 242.299 75.8182 238.966 75.8182ZM239.17 54.2273C240.731 54.2273 242.049 53.8409 243.125 53.0682C244.216 52.2803 245.049 51.1591 245.625 49.7045C246.216 48.2348 246.511 46.4773 246.511 44.4318C246.511 42.3864 246.223 40.6136 245.648 39.1136C245.072 37.5985 244.239 36.4242 243.148 35.5909C242.057 34.7576 240.731 34.3409 239.17 34.3409C237.58 34.3409 236.239 34.7727 235.148 35.6364C234.057 36.4848 233.231 37.6667 232.67 39.1818C232.11 40.697 231.83 42.447 231.83 44.4318C231.83 46.447 232.11 48.1894 232.67 49.6591C233.246 51.1136 234.072 52.2424 235.148 53.0455C236.239 53.8333 237.58 54.2273 239.17 54.2273ZM303.983 28.8409C303.801 27.0076 303.021 25.5833 301.642 24.5682C300.263 23.553 298.392 23.0455 296.028 23.0455C294.422 23.0455 293.066 23.2727 291.96 23.7273C290.854 24.1667 290.006 24.7803 289.415 25.5682C288.839 26.3561 288.551 27.25 288.551 28.25C288.521 29.0833 288.695 29.8106 289.074 30.4318C289.468 31.053 290.006 31.5909 290.688 32.0455C291.369 32.4848 292.157 32.8712 293.051 33.2045C293.945 33.5227 294.9 33.7955 295.915 34.0227L300.097 35.0227C302.127 35.4773 303.991 36.0833 305.688 36.8409C307.384 37.5985 308.854 38.5303 310.097 39.6364C311.339 40.7424 312.301 42.0455 312.983 43.5455C313.68 45.0455 314.036 46.7652 314.051 48.7045C314.036 51.553 313.309 54.0227 311.869 56.1136C310.445 58.1894 308.384 59.803 305.688 60.9545C303.006 62.0909 299.771 62.6591 295.983 62.6591C292.225 62.6591 288.953 62.0833 286.165 60.9318C283.392 59.7803 281.225 58.0758 279.665 55.8182C278.119 53.5455 277.309 50.7348 277.233 47.3864H286.756C286.862 48.947 287.309 50.25 288.097 51.2955C288.9 52.3258 289.968 53.1061 291.301 53.6364C292.65 54.1515 294.172 54.4091 295.869 54.4091C297.536 54.4091 298.983 54.1667 300.21 53.6818C301.453 53.197 302.415 52.5227 303.097 51.6591C303.778 50.7955 304.119 49.803 304.119 48.6818C304.119 47.6364 303.809 46.7576 303.188 46.0455C302.581 45.3333 301.688 44.7273 300.506 44.2273C299.339 43.7273 297.907 43.2727 296.21 42.8636L291.142 41.5909C287.218 40.6364 284.119 39.1439 281.847 37.1136C279.574 35.0833 278.445 32.3485 278.46 28.9091C278.445 26.0909 279.195 23.6288 280.71 21.5227C282.241 19.4167 284.339 17.7727 287.006 16.5909C289.672 15.4091 292.703 14.8182 296.097 14.8182C299.551 14.8182 302.566 15.4091 305.142 16.5909C307.733 17.7727 309.748 19.4167 311.188 21.5227C312.627 23.6288 313.369 26.0682 313.415 28.8409H303.983ZM336.261 62.6818C332.731 62.6818 329.678 61.9318 327.102 60.4318C324.542 58.9167 322.564 56.8106 321.17 54.1136C319.777 51.4015 319.08 48.2576 319.08 44.6818C319.08 41.0758 319.777 37.9242 321.17 35.2273C322.564 32.5152 324.542 30.4091 327.102 28.9091C329.678 27.3939 332.731 26.6364 336.261 26.6364C339.792 26.6364 342.837 27.3939 345.398 28.9091C347.973 30.4091 349.958 32.5152 351.352 35.2273C352.746 37.9242 353.443 41.0758 353.443 44.6818C353.443 48.2576 352.746 51.4015 351.352 54.1136C349.958 56.8106 347.973 58.9167 345.398 60.4318C342.837 61.9318 339.792 62.6818 336.261 62.6818ZM336.307 55.1818C337.913 55.1818 339.254 54.7273 340.33 53.8182C341.405 52.8939 342.216 51.6364 342.761 50.0455C343.322 48.4545 343.602 46.6439 343.602 44.6136C343.602 42.5833 343.322 40.7727 342.761 39.1818C342.216 37.5909 341.405 36.3333 340.33 35.4091C339.254 34.4848 337.913 34.0227 336.307 34.0227C334.686 34.0227 333.322 34.4848 332.216 35.4091C331.125 36.3333 330.299 37.5909 329.739 39.1818C329.193 40.7727 328.92 42.5833 328.92 44.6136C328.92 46.6439 329.193 48.4545 329.739 50.0455C330.299 51.6364 331.125 52.8939 332.216 53.8182C333.322 54.7273 334.686 55.1818 336.307 55.1818ZM375.511 62.6818C371.936 62.6818 368.86 61.9242 366.284 60.4091C363.723 58.8788 361.754 56.7576 360.375 54.0455C359.011 51.3333 358.33 48.2121 358.33 44.6818C358.33 41.1061 359.019 37.9697 360.398 35.2727C361.792 32.5606 363.769 30.447 366.33 28.9318C368.89 27.4015 371.936 26.6364 375.466 26.6364C378.511 26.6364 381.178 27.1894 383.466 28.2955C385.754 29.4015 387.564 30.9545 388.898 32.9545C390.231 34.9545 390.966 37.303 391.102 40H381.966C381.708 38.2576 381.027 36.8561 379.92 35.7955C378.83 34.7197 377.398 34.1818 375.625 34.1818C374.125 34.1818 372.814 34.5909 371.693 35.4091C370.587 36.2121 369.723 37.3864 369.102 38.9318C368.481 40.4773 368.17 42.3485 368.17 44.5455C368.17 46.7727 368.473 48.6667 369.08 50.2273C369.701 51.7879 370.572 52.9773 371.693 53.7955C372.814 54.6136 374.125 55.0227 375.625 55.0227C376.731 55.0227 377.723 54.7955 378.602 54.3409C379.496 53.8864 380.231 53.2273 380.807 52.3636C381.398 51.4848 381.784 50.4318 381.966 49.2045H391.102C390.951 51.8712 390.223 54.2197 388.92 56.25C387.633 58.2652 385.852 59.8409 383.58 60.9773C381.307 62.1136 378.617 62.6818 375.511 62.6818ZM397.301 62V27.0909H406.983V62H397.301ZM402.165 22.5909C400.725 22.5909 399.491 22.1136 398.46 21.1591C397.445 20.1894 396.938 19.0303 396.938 17.6818C396.938 16.3485 397.445 15.2045 398.46 14.25C399.491 13.2803 400.725 12.7955 402.165 12.7955C403.604 12.7955 404.831 13.2803 405.847 14.25C406.877 15.2045 407.392 16.3485 407.392 17.6818C407.392 19.0303 406.877 20.1894 405.847 21.1591C404.831 22.1136 403.604 22.5909 402.165 22.5909ZM424.693 62.6591C422.466 62.6591 420.481 62.2727 418.739 61.5C416.996 60.7121 415.617 59.553 414.602 58.0227C413.602 56.4773 413.102 54.553 413.102 52.25C413.102 50.3106 413.458 48.6818 414.17 47.3636C414.883 46.0455 415.852 44.9848 417.08 44.1818C418.307 43.3788 419.701 42.7727 421.261 42.3636C422.837 41.9545 424.489 41.6667 426.216 41.5C428.246 41.2879 429.883 41.0909 431.125 40.9091C432.367 40.7121 433.269 40.4242 433.83 40.0455C434.39 39.6667 434.67 39.1061 434.67 38.3636V38.2273C434.67 36.7879 434.216 35.6742 433.307 34.8864C432.413 34.0985 431.14 33.7045 429.489 33.7045C427.746 33.7045 426.36 34.0909 425.33 34.8636C424.299 35.6212 423.617 36.5758 423.284 37.7273L414.33 37C414.784 34.8788 415.678 33.0455 417.011 31.5C418.345 29.9394 420.064 28.7424 422.17 27.9091C424.292 27.0606 426.746 26.6364 429.534 26.6364C431.473 26.6364 433.33 26.8636 435.102 27.3182C436.89 27.7727 438.473 28.4773 439.852 29.4318C441.246 30.3864 442.345 31.6136 443.148 33.1136C443.951 34.5985 444.352 36.3788 444.352 38.4545V62H435.17V57.1591H434.898C434.337 58.25 433.587 59.2121 432.648 60.0455C431.708 60.8636 430.58 61.5076 429.261 61.9773C427.943 62.4318 426.42 62.6591 424.693 62.6591ZM427.466 55.9773C428.89 55.9773 430.148 55.697 431.239 55.1364C432.33 54.5606 433.186 53.7879 433.807 52.8182C434.428 51.8485 434.739 50.75 434.739 49.5227V45.8182C434.436 46.0152 434.019 46.197 433.489 46.3636C432.973 46.5152 432.39 46.6591 431.739 46.7955C431.087 46.9167 430.436 47.0303 429.784 47.1364C429.133 47.2273 428.542 47.3106 428.011 47.3864C426.875 47.553 425.883 47.8182 425.034 48.1818C424.186 48.5455 423.527 49.0379 423.057 49.6591C422.587 50.2652 422.352 51.0227 422.352 51.9318C422.352 53.25 422.83 54.2576 423.784 54.9545C424.754 55.6364 425.981 55.9773 427.466 55.9773ZM461.545 15.4545V62H451.864V15.4545H461.545Z" fill="black"/>
<path d="M140 17C140 15.3406 139.106 14 138 14C136.894 14 136 15.3406 136 17V20V48.5V59C136 60.6594 136.894 62 138 62C139.106 62 140 60.6594 140 59V47L144.019 45.4906C146.588 44.525 149.306 44.975 151.675 46.7469C154.438 48.8187 157.644 49.0719 160.531 47.4406L162.7 46.2219C163.481 45.7813 164 44.6656 164 43.4094V20.1969C164 18.0406 162.488 16.6344 161.2 17.6L160.6 18.05C157.706 20.225 154.3 20.225 151.406 18.05C149.213 16.4 146.694 15.9875 144.312 16.8781L140 18.5V17Z" fill="#FF0000"/>
</svg>
