<svg width="28" height="48" viewBox="0 0 28 48" fill="none" xmlns="http://www.w3.org/2000/svg">
<path d="M4 3C4 1.34062 3.10625 0 2 0C0.89375 0 0 1.34062 0 3V6V34.5V45C0 46.6594 0.89375 48 2 48C3.10625 48 4 46.6594 4 45V33L8.01875 31.4906C10.5875 30.525 13.3063 30.975 15.675 32.7469C18.4375 34.8187 21.6437 35.0719 24.5312 33.4406L26.7 32.2219C27.4813 31.7813 28 30.6656 28 29.4094V6.19687C28 4.04062 26.4875 2.63438 25.2 3.6L24.6 4.05C21.7063 6.225 18.3 6.225 15.4062 4.05C13.2125 2.4 10.6937 1.9875 8.3125 2.87813L4 4.5V3Z" fill="#FF0000"/>
</svg>
